# xmcd CD database file
#
# Track frame offsets:
#	150
#	22470
#	41752
#	62265
#	82610
#	101957
#	120857
#	143357
#	160010
#	185872
#	206290
#	224377
#	243890
#
# Disc length: 3513 seconds
#
# Revision: 0
# Processed by: cddbd v1.5.1PL0 Copyright (c) Steve Scherf et al.
# Submitted via: CDex 1.51
#
DISCID=a70db70d
DTITLE=中森明菜 - For Dear Friends〜Akina Nakamori Single Collection Disc 4
DYEAR=2002
DGENRE=JPop
TTITLE0=Labyrinth
TTITLE1=燠火
TTITLE2=不思議
TTITLE3=ガラスの心
TTITLE4=マリオネット
TTITLE5=Teen-age blue
TTITLE6=駅
TTITLE7=Blue On Pink
TTITLE8=帰省〜Never Forget〜
TTITLE9=今夜、流れ星
TTITLE10=とまどい
TTITLE11=オフェリア
TTITLE12=Trust Me
EXTD=YEAR: 2002
EXTT0=
EXTT1=
EXTT2=
EXTT3=
EXTT4=
EXTT5=
EXTT6=
EXTT7=
EXTT8=
EXTT9=
EXTT10=
EXTT11=
EXTT12=
PLAYORDER=
